<?xml version="1.0" standalone="no"?>
<!DOCTYPE svg PUBLIC "-//W3C//DTD SVG 20010904//EN"
 "https://www.w3.org/TR/2001/REC-SVG-20010904/DTD/svg10.dtd">
<svg version="1.0" xmlns="http://www.w3.org/2000/svg"
 width="300.000000pt" height="300.000000pt" viewBox="0 0 300.000000 300.000000"
 preserveAspectRatio="xMidYMid meet">
<metadata>
Created by potrace 1.11, written by Peter Selinger 2001-2013
</metadata>
<g transform="translate(0.000000,300.000000) scale(0.100000,-0.100000)"
fill="#000000" stroke="none">
<path d="M1394 2370 c-131 -15 -300 -80 -409 -158 -416 -298 -517 -855 -232
-1277 122 -180 321 -317 547 -377 104 -28 317 -30 415 -5 176 45 319 124 440
242 127 125 199 248 251 425 24 83 28 112 28 230 0 159 -22 263 -85 399 -113
243 -342 433 -604 501 -91 23 -247 32 -351 20z m646 -415 l0 -65 -265 0 -265
0 0 65 0 65 265 0 265 0 0 -65z m-557 -145 c40 -45 38 -103 -5 -147 -44 -45
-103 -47 -150 -4 -28 25 -33 36 -33 74 0 48 27 89 70 108 36 16 88 2 118 -31z
m-183 -415 l0 -65 -260 0 -260 0 0 65 0 65 260 0 260 0 0 -65z m780 0 l0 -65
-260 0 -260 0 0 65 0 65 260 0 260 0 0 -65z m-597 -135 c90 -101 -52 -243
-153 -152 -46 40 -51 97 -14 141 15 18 37 37 48 42 37 15 89 2 119 -31z m779
0 c38 -37 40 -43 35 -83 -13 -93 -117 -130 -184 -65 -73 70 -23 185 81 187 20
1 40 -10 68 -39z"/>
</g>
</svg>
